<?xml version="1.0" encoding="utf-8"?>
<!-- Generator: Adobe Illustrator 16.0.0, SVG Export Plug-In . SVG Version: 6.00 Build 0)  -->
<!DOCTYPE svg PUBLIC "-//W3C//DTD SVG 1.1//EN" "http://www.w3.org/Graphics/SVG/1.1/DTD/svg11.dtd">
<svg version="1.1" id="Layer_1" xmlns="http://www.w3.org/2000/svg" xmlns:xlink="http://www.w3.org/1999/xlink" x="0px" y="0px"
	 width="512px" height="512px" viewBox="0 0 512 512" enable-background="new 0 0 512 512" xml:space="preserve">
<path d="M368.129,1c10.398,0,20.598,4.063,28.281,11.734l97.961,97.754C505.738,121.832,512,136.922,512,152.98
	s-6.262,31.152-17.629,42.496L396.41,293.23c-11.512,11.492-28.664,14.887-43.695,8.652c-15.012-6.227-24.711-20.742-24.711-36.977
	v-91.922C169.199,172.984,40,302.184,40,460.988v31.996c0,11.047-8.953,20-20,20s-20-8.953-20-20v-31.996
	c0-87.613,34.117-169.984,96.07-231.938c61.953-61.949,144.32-96.07,231.934-96.07c22.059,0,40.004,17.945,40.004,40v91.926
	c0,0.004,0,0.008,0,0.012c0.031,0.016,0.07,0.031,0.105,0.043c0.012-0.016,0.027-0.027,0.043-0.043l97.961-97.758
	c3.793-3.785,5.883-8.82,5.883-14.18s-2.09-10.395-5.883-14.18l-97.961-97.754l-0.043-0.043c-0.035,0.012-0.074,0.023-0.105,0.039
	c0,0.004,0,0.008,0,0.016V62.98c0,11.047-8.957,20-20.004,20c-11.043,0-20-8.953-20-20V41.059c0-16.234,9.699-30.75,24.711-36.977
	C357.711,2.008,362.945,1,368.129,1z"/>
</svg>
